<?xml version="1.0" encoding="UTF-8"?>
<svg viewBox="140 110 400 210" width="32" height="32" xmlns="http://www.w3.org/2000/svg" aria-label="New England Crust">
  <circle cx="340" cy="340" r="294" fill="#120E08"/>
  <circle cx="340" cy="340" r="292" fill="none" stroke="#D4832A" stroke-width="14"/>
  <!-- Left flame -->
  <path d="M 298,218 C 308,242 304,266 292,285 C 278,262 278,236 298,218 Z" fill="#C84B2E" opacity="0.85"/>
  <path d="M 298,238 C 306,254 303,270 293,281 C 282,268 282,250 298,238 Z" fill="#E8943A"/>
  <!-- Right flame -->
  <path d="M 362,210 C 374,236 372,260 358,282 C 344,260 344,234 362,210 Z" fill="#C84B2E" opacity="0.85"/>
  <path d="M 362,232 C 371,250 369,268 358,279 C 347,267 347,248 362,232 Z" fill="#E8943A"/>
  <!-- Center flame -->
  <path d="M 340,138 C 368,172 360,230 330,280 C 308,244 312,182 340,138 Z" fill="#C84B2E"/>
  <path d="M 338,162 C 362,194 354,242 328,278 C 310,248 316,196 338,162 Z" fill="#E8943A"/>
  <path d="M 336,190 C 354,216 348,252 328,272 C 314,252 318,218 336,190 Z" fill="#F4C042"/>
  <path d="M 334,215 C 346,232 342,256 328,268 C 318,256 320,234 334,215 Z" fill="#FFEFAA" opacity="0.6"/>
</svg>
