<?xml version="1.0" encoding="UTF-8"?>
<svg viewBox="0 0 680 680" width="32" height="32" xmlns="http://www.w3.org/2000/svg" aria-label="New England Crust">
  <!-- Dark background -->
  <circle cx="340" cy="340" r="340" fill="#120E08"/>
  <!-- Amber ring -->
  <circle cx="340" cy="340" r="320" fill="none" stroke="#D4832A" stroke-width="18"/>
  <!-- Left flame -->
  <path d="M 280,210 C 295,245 290,278 272,302 C 252,274 252,242 280,210 Z" fill="#C84B2E" opacity="0.85"/>
  <path d="M 280,238 C 292,260 288,280 273,295 C 257,278 257,255 280,238 Z" fill="#E8943A"/>
  <!-- Right flame -->
  <path d="M 400,200 C 418,236 415,265 396,292 C 376,265 376,234 400,200 Z" fill="#C84B2E" opacity="0.85"/>
  <path d="M 400,228 C 414,250 412,272 396,284 C 380,272 380,248 400,228 Z" fill="#E8943A"/>
  <!-- Center flame — large and prominent -->
  <path d="M 340,100 C 375,145 365,220 328,290 C 300,248 306,170 340,100 Z" fill="#C84B2E"/>
  <path d="M 338,132 C 368,174 358,238 328,284 C 305,250 312,180 338,132 Z" fill="#E8943A"/>
  <path d="M 336,168 C 360,202 350,250 328,276 C 310,252 316,206 336,168 Z" fill="#F4C042"/>
  <path d="M 334,200 C 352,228 344,260 328,272 C 314,258 318,230 334,200 Z" fill="#FFEFAA" opacity="0.55"/>
</svg>
